<svg width="14" height="15" viewBox="0 0 14 15" fill="none" xmlns="http://www.w3.org/2000/svg">
<path d="M1.54907 3.52344H12.3927V7.50709C12.3927 8.72704 12.221 9.94083 11.8829 11.1122C11.4166 12.7275 10.0741 13.931 8.42835 14.2091L8.30615 14.2297C7.42212 14.3791 6.5196 14.3791 5.63557 14.2297L5.51339 14.2091C3.86763 13.931 2.52513 12.7275 2.05884 11.1122C1.7207 9.94082 1.54907 8.72705 1.54907 7.50711V3.52344Z" stroke="#FF0000" stroke-width="0.8"/>
<path d="M0 3.52344H13.9418M3.48544 3.52344C3.48544 3.11327 3.5756 2.70711 3.75076 2.32816C3.92592 1.94921 4.18265 1.60489 4.50631 1.31485C4.82996 1.02482 5.21419 0.794747 5.63707 0.63778C6.05994 0.480814 6.51317 0.400024 6.97089 0.400024C7.4286 0.400024 7.88183 0.480814 8.30471 0.637781C8.72758 0.794747 9.11181 1.02482 9.43547 1.31485C9.75912 1.60489 10.0159 1.94921 10.191 2.32816C10.3662 2.70711 10.4563 3.11327 10.4563 3.52344" stroke="#FF0000" stroke-width="0.8"/>
<path d="M5.42188 7.37097V10.4691M8.52005 7.37097V10.4691" stroke="#FF0000" stroke-width="0.8" stroke-linecap="round"/>
</svg>
