<svg width="20" height="22" viewBox="0 0 20 22" fill="none" xmlns="http://www.w3.org/2000/svg">
<path d="M1.09856 10.324C1.67998 8.17733 3.47632 6.53057 5.73775 6.07116L6.05216 6.00729C8.56281 5.49725 11.1569 5.49725 13.6676 6.00729L13.982 6.07116C16.2434 6.53057 18.0398 8.17733 18.6212 10.324C19.1956 12.445 19.0573 14.686 18.226 16.7271L18.1202 16.9869C17.2705 19.0733 15.3357 20.574 13.0315 20.934L12.1788 21.0672C10.643 21.3071 9.07673 21.3071 7.54085 21.0672L6.68825 20.934C4.38404 20.574 2.44923 19.0732 1.59948 16.9868L1.4937 16.7271C0.662382 14.686 0.524091 12.4451 1.09856 10.324Z" fill="#828282" fill-opacity="0.14902" stroke="#828282" stroke-width="1.5" stroke-linecap="round"/>
<path d="M4.89941 5.8122V5.54337C4.89941 3.36571 6.43224 1.46286 8.6285 0.914079L8.70633 0.894633C9.46313 0.705527 10.2573 0.701803 11.016 0.883803C11.8372 1.08079 12.5872 1.48823 13.1857 2.06255L13.4766 2.34169" fill="#828282" fill-opacity="0.14902"/>
<path d="M4.89941 5.8122V5.54337C4.89941 3.36571 6.43224 1.46286 8.6285 0.914079L8.70633 0.894633C9.46313 0.705527 10.2573 0.701803 11.016 0.883803C11.8372 1.08079 12.5872 1.48823 13.1857 2.06255L13.4766 2.34169" stroke="#828282" stroke-width="1.5" stroke-linecap="round"/>
<path d="M9.85986 12.7068L9.85986 14.9843L9.85986 12.7068Z" fill="#828282" fill-opacity="0.14902"/>
<path d="M9.85986 12.7068L9.85986 14.9843" stroke="#828282" stroke-width="1.5" stroke-linecap="round"/>
</svg>
